<svg width="460" height="120" viewBox="0 0 460 120" fill="none" xmlns="http://www.w3.org/2000/svg">
<rect width="460" height="120" fill="white"/>
<path d="M68.0723 66.5488C68.0723 65.8574 68.2773 65.3652 68.6875 65.0723C69.0977 64.7676 69.4961 64.6152 69.8828 64.6152H71.9746C73.0293 64.6152 73.832 65.1895 74.3828 66.3379C74.9336 67.4863 76.1699 68.0605 78.0918 68.0605L84.2441 68.1836C86.3066 68.1836 87.3379 67.5098 87.3379 66.1621C87.3379 65.1426 86.0781 64.3398 83.5586 63.7539C82.4336 63.4844 81.1914 63.2207 79.832 62.9629C78.4727 62.6934 77.1191 62.3594 75.7715 61.9609C74.4355 61.5625 73.2051 61.0938 72.0801 60.5547C70.9551 60.0156 70.041 59.2773 69.3379 58.3398C68.6465 57.3906 68.3008 56.2773 68.3008 55C68.3008 52.6445 69.1387 50.834 70.8145 49.5684C72.4902 48.291 75.373 47.6523 79.4629 47.6523L83.9277 47.7578C86.3301 47.7578 88.4922 48.3789 90.4141 49.6211C92.3477 50.8516 93.3145 52.3926 93.3145 54.2441C93.3145 54.9355 93.1094 55.4336 92.6992 55.7383C92.2891 56.043 91.8965 56.1953 91.5215 56.1953H89.4297C88.375 56.1953 87.5723 55.6211 87.0215 54.4727C86.4707 53.3125 85.2344 52.7324 83.3125 52.7324L78.0215 52.627C75.959 52.627 74.9277 53.3008 74.9277 54.6484C74.9277 55.3867 75.5781 55.9902 76.8789 56.459C78.1914 56.9277 79.7734 57.3438 81.625 57.707C83.4883 58.0586 85.3574 58.4863 87.2324 58.9902C89.1074 59.4941 90.6953 60.3262 91.9961 61.4863C93.3086 62.6348 93.9648 64.0703 93.9648 65.793C93.9648 68.1484 93.1211 69.9648 91.4336 71.2422C89.7578 72.5078 86.8809 73.1406 82.8027 73.1406L77.4766 73.0352C75.0742 73.0352 72.9062 72.4199 70.9727 71.1895C69.0391 69.9473 68.0723 68.4004 68.0723 66.5488ZM94.8789 51.1152V49.4629C94.8789 48.9824 95.0371 48.584 95.3535 48.2676C95.6699 47.9512 96.0684 47.793 96.5488 47.793H118.855C119.336 47.793 119.734 47.9512 120.051 48.2676C120.367 48.584 120.525 48.9824 120.525 49.4629V51.1152C120.525 51.5957 120.367 51.9941 120.051 52.3105C119.734 52.6152 119.336 52.7676 118.855 52.7676H111.016V71.3828C111.016 71.8398 110.852 72.2266 110.523 72.543C110.207 72.8477 109.82 73 109.363 73H106.041C105.584 73 105.191 72.8477 104.863 72.543C104.547 72.2266 104.389 71.8398 104.389 71.3828V52.7676H96.5488C96.0684 52.7676 95.6699 52.6152 95.3535 52.3105C95.0371 51.9941 94.8789 51.5957 94.8789 51.1152ZM123.408 71.3828V49.4629C123.408 49.0059 123.572 48.6133 123.9 48.2852C124.229 47.957 124.621 47.793 125.078 47.793H128.348C128.828 47.793 129.227 47.957 129.543 48.2852C129.871 48.6133 130.035 49.0059 130.035 49.4629V71.3477C130.035 71.8047 129.865 72.1973 129.525 72.5254C129.197 72.8418 128.805 73 128.348 73H125.078C124.621 73 124.229 72.8477 123.9 72.543C123.572 72.2266 123.408 71.8398 123.408 71.3828ZM132.918 51.1152V49.4629C132.918 48.9824 133.076 48.584 133.393 48.2676C133.709 47.9512 134.107 47.793 134.588 47.793H156.895C157.375 47.793 157.773 47.9512 158.09 48.2676C158.406 48.584 158.564 48.9824 158.564 49.4629V51.1152C158.564 51.5957 158.406 51.9941 158.09 52.3105C157.773 52.6152 157.375 52.7676 156.895 52.7676H149.055V71.3828C149.055 71.8398 148.891 72.2266 148.562 72.543C148.246 72.8477 147.859 73 147.402 73H144.08C143.623 73 143.23 72.8477 142.902 72.543C142.586 72.2266 142.428 71.8398 142.428 71.3828V52.7676H134.588C134.107 52.7676 133.709 52.6152 133.393 52.3105C133.076 51.9941 132.918 51.5957 132.918 51.1152ZM162.73 70.0293C160.562 67.9551 159.479 64.75 159.479 60.4141C159.479 56.0664 160.562 52.8555 162.73 50.7812C164.91 48.6953 168.174 47.6523 172.521 47.6523H176.441C179.102 47.6523 181.451 48.3438 183.49 49.7266C185.541 51.1094 186.566 53.002 186.566 55.4043C186.566 56.0957 186.361 56.5938 185.951 56.8984C185.541 57.1914 185.143 57.3379 184.756 57.3379H182.664C181.586 57.3379 180.748 56.6934 180.15 55.4043C179.283 53.5527 177.842 52.627 175.826 52.627H172.697C170.131 52.627 168.391 53.1777 167.477 54.2793C166.562 55.3809 166.105 57.4199 166.105 60.3965C166.105 63.373 166.562 65.418 167.477 66.5312C168.391 67.6328 170.131 68.1836 172.697 68.1836H176.195C178.211 68.1836 179.646 67.2578 180.502 65.4062C181.1 64.1055 181.943 63.4551 183.033 63.4551H185.125C185.676 63.4551 186.109 63.6602 186.426 64.0703C186.754 64.4805 186.918 64.9258 186.918 65.4062C186.918 67.8086 185.898 69.7012 183.859 71.084C181.82 72.4551 179.471 73.1406 176.811 73.1406H172.521C168.174 73.1406 164.91 72.1035 162.73 70.0293ZM190.346 71.3477V49.4629C190.346 49.0059 190.51 48.6133 190.838 48.2852C191.166 47.957 191.57 47.793 192.051 47.793H195.32C195.777 47.793 196.164 47.957 196.48 48.2852C196.809 48.6133 196.973 49.0059 196.973 49.4629V57.373H209.066V49.4629C209.066 49.0059 209.23 48.6133 209.559 48.2852C209.887 47.957 210.279 47.793 210.736 47.793H214.006C214.486 47.793 214.885 47.957 215.201 48.2852C215.529 48.6133 215.693 49.0059 215.693 49.4629V71.3477C215.693 71.8047 215.523 72.1973 215.184 72.5254C214.855 72.8418 214.463 73 214.006 73H210.736C210.279 73 209.887 72.8477 209.559 72.543C209.23 72.2266 209.066 71.8398 209.066 71.3828V62.3477H196.973V71.3828C196.973 71.8398 196.809 72.2266 196.48 72.543C196.164 72.8477 195.777 73 195.32 73H192.051C191.594 73 191.195 72.8418 190.855 72.5254C190.516 72.1973 190.346 71.8047 190.346 71.3477Z" fill="black"/>
<path d="M220.756 71.3125V49.4277C220.756 48.9707 220.92 48.584 221.248 48.2676C221.576 47.9512 221.969 47.793 222.426 47.793H242.693C243.15 47.793 243.537 47.957 243.854 48.2852C244.182 48.6133 244.346 49.0059 244.346 49.4629V51.1152C244.346 51.5723 244.182 51.9648 243.854 52.293C243.537 52.6094 243.15 52.7676 242.693 52.7676H227.383V57.8828H240.566C241.023 57.8828 241.41 58.0469 241.727 58.375C242.055 58.6914 242.219 59.0781 242.219 59.5352V61.1875C242.219 61.6445 242.055 62.0371 241.727 62.3652C241.41 62.6816 241.023 62.8398 240.566 62.8398H227.383V68.0254H242.658C243.104 68.0254 243.484 68.1836 243.801 68.5C244.117 68.8164 244.275 69.2031 244.275 69.6602V71.3477C244.275 71.8047 244.111 72.1973 243.783 72.5254C243.455 72.8418 243.062 73 242.605 73H222.426C221.969 73 221.576 72.8418 221.248 72.5254C220.92 72.1973 220.756 71.793 220.756 71.3125ZM246.139 66.5488C246.139 65.8574 246.344 65.3652 246.754 65.0723C247.164 64.7676 247.562 64.6152 247.949 64.6152H250.041C251.096 64.6152 251.898 65.1895 252.449 66.3379C253 67.4863 254.236 68.0605 256.158 68.0605L262.311 68.1836C264.373 68.1836 265.404 67.5098 265.404 66.1621C265.404 65.1426 264.145 64.3398 261.625 63.7539C260.5 63.4844 259.258 63.2207 257.898 62.9629C256.539 62.6934 255.186 62.3594 253.838 61.9609C252.502 61.5625 251.271 61.0938 250.146 60.5547C249.021 60.0156 248.107 59.2773 247.404 58.3398C246.713 57.3906 246.367 56.2773 246.367 55C246.367 52.6445 247.205 50.834 248.881 49.5684C250.557 48.291 253.439 47.6523 257.529 47.6523L261.994 47.7578C264.396 47.7578 266.559 48.3789 268.48 49.6211C270.414 50.8516 271.381 52.3926 271.381 54.2441C271.381 54.9355 271.176 55.4336 270.766 55.7383C270.355 56.043 269.963 56.1953 269.588 56.1953H267.496C266.441 56.1953 265.639 55.6211 265.088 54.4727C264.537 53.3125 263.301 52.7324 261.379 52.7324L256.088 52.627C254.025 52.627 252.994 53.3008 252.994 54.6484C252.994 55.3867 253.645 55.9902 254.945 56.459C256.258 56.9277 257.84 57.3438 259.691 57.707C261.555 58.0586 263.424 58.4863 265.299 58.9902C267.174 59.4941 268.762 60.3262 270.062 61.4863C271.375 62.6348 272.031 64.0703 272.031 65.793C272.031 68.1484 271.188 69.9648 269.5 71.2422C267.824 72.5078 264.947 73.1406 260.869 73.1406L255.543 73.0352C253.141 73.0352 250.973 72.4199 249.039 71.1895C247.105 69.9473 246.139 68.4004 246.139 66.5488ZM274.562 64.5098V56.7227C274.562 53.3945 275.406 51.0508 277.094 49.6914C278.793 48.332 281.318 47.6523 284.67 47.6523H289.135C291.783 47.6523 293.986 48.2383 295.744 49.4102C297.514 50.5703 298.398 52.0234 298.398 53.7695C298.398 54.4727 298.193 54.9766 297.783 55.2812C297.373 55.5742 296.975 55.7207 296.588 55.7207H294.514C293.6 55.7207 292.826 55.2051 292.193 54.1738C291.572 53.1426 290.354 52.627 288.537 52.627H285.285C283.844 52.627 282.801 52.9141 282.156 53.4883C281.512 54.0625 281.189 55.1406 281.189 56.7227V57.373H288.607C291.936 57.373 294.461 57.9824 296.184 59.2012C297.918 60.4082 298.785 62.4297 298.785 65.2656C298.785 68.0898 297.918 70.1113 296.184 71.3301C294.461 72.5371 291.936 73.1406 288.607 73.1406H284.758C281.371 73.1406 278.822 72.4961 277.111 71.207C275.412 69.9062 274.562 67.6738 274.562 64.5098ZM281.189 64.5098C281.189 65.9512 281.512 66.9238 282.156 67.4277C282.801 67.9316 283.867 68.1836 285.355 68.1836H287.992C289.434 68.1836 290.488 67.9727 291.156 67.5508C291.824 67.1289 292.158 66.3672 292.158 65.2656C292.158 64.1523 291.824 63.3906 291.156 62.9805C290.488 62.5586 289.434 62.3477 287.992 62.3477H281.189V64.5098Z" fill="#D02F19"/>
<rect x="325" y="47" width="8" height="20" rx="2" fill="#11AB75"/>
<rect x="337" y="55" width="8" height="20" rx="2" fill="#3CB955"/>
<rect x="349" y="47" width="8" height="20" rx="2" fill="#71C92D"/>
<rect x="361" y="55" width="8" height="20" rx="2" fill="#BCDF10"/>
<rect x="373" y="47" width="8" height="20" rx="2" fill="#F4D30F"/>
<rect x="385" y="55" width="8" height="20" rx="2" fill="#D02F19"/>
</svg>
