<svg width="301" height="38" viewBox="0 0 301 38" fill="none" xmlns="http://www.w3.org/2000/svg">
<path d="M3.95117 29.5488C3.95117 28.8574 4.15625 28.3652 4.56641 28.0723C4.97656 27.7676 5.375 27.6152 5.76172 27.6152H7.85352C8.9082 27.6152 9.71094 28.1895 10.2617 29.3379C10.8125 30.4863 12.0488 31.0605 13.9707 31.0605L20.123 31.1836C22.1855 31.1836 23.2168 30.5098 23.2168 29.1621C23.2168 28.1426 21.957 27.3398 19.4375 26.7539C18.3125 26.4844 17.0703 26.2207 15.7109 25.9629C14.3516 25.6934 12.998 25.3594 11.6504 24.9609C10.3145 24.5625 9.08398 24.0938 7.95898 23.5547C6.83398 23.0156 5.91992 22.2773 5.2168 21.3398C4.52539 20.3906 4.17969 19.2773 4.17969 18C4.17969 15.6445 5.01758 13.834 6.69336 12.5684C8.36914 11.291 11.252 10.6523 15.3418 10.6523L19.8066 10.7578C22.209 10.7578 24.3711 11.3789 26.293 12.6211C28.2266 13.8516 29.1934 15.3926 29.1934 17.2441C29.1934 17.9355 28.9883 18.4336 28.5781 18.7383C28.168 19.043 27.7754 19.1953 27.4004 19.1953H25.3086C24.2539 19.1953 23.4512 18.6211 22.9004 17.4727C22.3496 16.3125 21.1133 15.7324 19.1914 15.7324L13.9004 15.627C11.8379 15.627 10.8066 16.3008 10.8066 17.6484C10.8066 18.3867 11.457 18.9902 12.7578 19.459C14.0703 19.9277 15.6523 20.3438 17.5039 20.707C19.3672 21.0586 21.2363 21.4863 23.1113 21.9902C24.9863 22.4941 26.5742 23.3262 27.875 24.4863C29.1875 25.6348 29.8438 27.0703 29.8438 28.793C29.8438 31.1484 29 32.9648 27.3125 34.2422C25.6367 35.5078 22.7598 36.1406 18.6816 36.1406L13.3555 36.0352C10.9531 36.0352 8.78516 35.4199 6.85156 34.1895C4.91797 32.9473 3.95117 31.4004 3.95117 29.5488ZM30.7578 14.1152V12.4629C30.7578 11.9824 30.916 11.584 31.2324 11.2676C31.5488 10.9512 31.9473 10.793 32.4277 10.793H54.7344C55.2148 10.793 55.6133 10.9512 55.9297 11.2676C56.2461 11.584 56.4043 11.9824 56.4043 12.4629V14.1152C56.4043 14.5957 56.2461 14.9941 55.9297 15.3105C55.6133 15.6152 55.2148 15.7676 54.7344 15.7676H46.8945V34.3828C46.8945 34.8398 46.7305 35.2266 46.4023 35.543C46.0859 35.8477 45.6992 36 45.2422 36H41.9199C41.4629 36 41.0703 35.8477 40.7422 35.543C40.4258 35.2266 40.2676 34.8398 40.2676 34.3828V15.7676H32.4277C31.9473 15.7676 31.5488 15.6152 31.2324 15.3105C30.916 14.9941 30.7578 14.5957 30.7578 14.1152ZM59.2871 34.3828V12.4629C59.2871 12.0059 59.4512 11.6133 59.7793 11.2852C60.1074 10.957 60.5 10.793 60.957 10.793H64.2266C64.707 10.793 65.1055 10.957 65.4219 11.2852C65.75 11.6133 65.9141 12.0059 65.9141 12.4629V34.3477C65.9141 34.8047 65.7441 35.1973 65.4043 35.5254C65.0762 35.8418 64.6836 36 64.2266 36H60.957C60.5 36 60.1074 35.8477 59.7793 35.543C59.4512 35.2266 59.2871 34.8398 59.2871 34.3828ZM68.7969 14.1152V12.4629C68.7969 11.9824 68.9551 11.584 69.2715 11.2676C69.5879 10.9512 69.9863 10.793 70.4668 10.793H92.7734C93.2539 10.793 93.6523 10.9512 93.9688 11.2676C94.2852 11.584 94.4434 11.9824 94.4434 12.4629V14.1152C94.4434 14.5957 94.2852 14.9941 93.9688 15.3105C93.6523 15.6152 93.2539 15.7676 92.7734 15.7676H84.9336V34.3828C84.9336 34.8398 84.7695 35.2266 84.4414 35.543C84.125 35.8477 83.7383 36 83.2812 36H79.959C79.502 36 79.1094 35.8477 78.7812 35.543C78.4648 35.2266 78.3066 34.8398 78.3066 34.3828V15.7676H70.4668C69.9863 15.7676 69.5879 15.6152 69.2715 15.3105C68.9551 14.9941 68.7969 14.5957 68.7969 14.1152ZM98.6094 33.0293C96.4414 30.9551 95.3574 27.75 95.3574 23.4141C95.3574 19.0664 96.4414 15.8555 98.6094 13.7812C100.789 11.6953 104.053 10.6523 108.4 10.6523H112.32C114.98 10.6523 117.33 11.3437 119.369 12.7266C121.42 14.1094 122.445 16.002 122.445 18.4043C122.445 19.0957 122.24 19.5938 121.83 19.8984C121.42 20.1914 121.021 20.3379 120.635 20.3379H118.543C117.465 20.3379 116.627 19.6934 116.029 18.4043C115.162 16.5527 113.721 15.627 111.705 15.627H108.576C106.01 15.627 104.27 16.1777 103.355 17.2793C102.441 18.3809 101.984 20.4199 101.984 23.3965C101.984 26.373 102.441 28.418 103.355 29.5312C104.27 30.6328 106.01 31.1836 108.576 31.1836H112.074C114.09 31.1836 115.525 30.2578 116.381 28.4062C116.979 27.1055 117.822 26.4551 118.912 26.4551H121.004C121.555 26.4551 121.988 26.6602 122.305 27.0703C122.633 27.4805 122.797 27.9258 122.797 28.4062C122.797 30.8086 121.777 32.7012 119.738 34.084C117.699 35.4551 115.35 36.1406 112.689 36.1406H108.4C104.053 36.1406 100.789 35.1035 98.6094 33.0293ZM126.225 34.3477V12.4629C126.225 12.0059 126.389 11.6133 126.717 11.2852C127.045 10.957 127.449 10.793 127.93 10.793H131.199C131.656 10.793 132.043 10.957 132.359 11.2852C132.688 11.6133 132.852 12.0059 132.852 12.4629V20.373H144.945V12.4629C144.945 12.0059 145.109 11.6133 145.438 11.2852C145.766 10.957 146.158 10.793 146.615 10.793H149.885C150.365 10.793 150.764 10.957 151.08 11.2852C151.408 11.6133 151.572 12.0059 151.572 12.4629V34.3477C151.572 34.8047 151.402 35.1973 151.062 35.5254C150.734 35.8418 150.342 36 149.885 36H146.615C146.158 36 145.766 35.8477 145.438 35.543C145.109 35.2266 144.945 34.8398 144.945 34.3828V25.3477H132.852V34.3828C132.852 34.8398 132.688 35.2266 132.359 35.543C132.043 35.8477 131.656 36 131.199 36H127.93C127.473 36 127.074 35.8418 126.734 35.5254C126.395 35.1973 126.225 34.8047 126.225 34.3477Z" fill="black"/>
<path d="M156.635 34.3125V12.4277C156.635 11.9707 156.799 11.584 157.127 11.2676C157.455 10.9512 157.848 10.793 158.305 10.793H178.572C179.029 10.793 179.416 10.957 179.732 11.2852C180.061 11.6133 180.225 12.0059 180.225 12.4629V14.1152C180.225 14.5723 180.061 14.9648 179.732 15.293C179.416 15.6094 179.029 15.7676 178.572 15.7676H163.262V20.8828H176.445C176.902 20.8828 177.289 21.0469 177.605 21.375C177.934 21.6914 178.098 22.0781 178.098 22.5352V24.1875C178.098 24.6445 177.934 25.0371 177.605 25.3652C177.289 25.6816 176.902 25.8398 176.445 25.8398H163.262V31.0254H178.537C178.982 31.0254 179.363 31.1836 179.68 31.5C179.996 31.8164 180.154 32.2031 180.154 32.6602V34.3477C180.154 34.8047 179.99 35.1973 179.662 35.5254C179.334 35.8418 178.941 36 178.484 36H158.305C157.848 36 157.455 35.8418 157.127 35.5254C156.799 35.1973 156.635 34.793 156.635 34.3125ZM182.018 29.5488C182.018 28.8574 182.223 28.3652 182.633 28.0723C183.043 27.7676 183.441 27.6152 183.828 27.6152H185.92C186.975 27.6152 187.777 28.1895 188.328 29.3379C188.879 30.4863 190.115 31.0605 192.037 31.0605L198.189 31.1836C200.252 31.1836 201.283 30.5098 201.283 29.1621C201.283 28.1426 200.023 27.3398 197.504 26.7539C196.379 26.4844 195.137 26.2207 193.777 25.9629C192.418 25.6934 191.064 25.3594 189.717 24.9609C188.381 24.5625 187.15 24.0938 186.025 23.5547C184.9 23.0156 183.986 22.2773 183.283 21.3398C182.592 20.3906 182.246 19.2773 182.246 18C182.246 15.6445 183.084 13.834 184.76 12.5684C186.436 11.291 189.318 10.6523 193.408 10.6523L197.873 10.7578C200.275 10.7578 202.438 11.3789 204.359 12.6211C206.293 13.8516 207.26 15.3926 207.26 17.2441C207.26 17.9355 207.055 18.4336 206.645 18.7383C206.234 19.043 205.842 19.1953 205.467 19.1953H203.375C202.32 19.1953 201.518 18.6211 200.967 17.4727C200.416 16.3125 199.18 15.7324 197.258 15.7324L191.967 15.627C189.904 15.627 188.873 16.3008 188.873 17.6484C188.873 18.3867 189.523 18.9902 190.824 19.459C192.137 19.9277 193.719 20.3438 195.57 20.707C197.434 21.0586 199.303 21.4863 201.178 21.9902C203.053 22.4941 204.641 23.3262 205.941 24.4863C207.254 25.6348 207.91 27.0703 207.91 28.793C207.91 31.1484 207.066 32.9648 205.379 34.2422C203.703 35.5078 200.826 36.1406 196.748 36.1406L191.422 36.0352C189.02 36.0352 186.852 35.4199 184.918 34.1895C182.984 32.9473 182.018 31.4004 182.018 29.5488Z" fill="#D02F19"/>
<rect x="233" y="10" width="8" height="20" rx="2" fill="#11AB75"/>
<rect x="245" y="18" width="8" height="20" rx="2" fill="#3CB955"/>
<rect x="257" y="10" width="8" height="20" rx="2" fill="#71C92D"/>
<rect x="269" y="18" width="8" height="20" rx="2" fill="#BCDF10"/>
<rect x="281" y="10" width="8" height="20" rx="2" fill="#F4D30F"/>
<rect x="293" y="18" width="8" height="20" rx="2" fill="#D02F19"/>
</svg>
